<svg width="1844" height="480" fill="none" xmlns="http://www.w3.org/2000/svg"><path d="M212.375 375.562l19.533-19.867c3.575-3.624 5.617-8.607 5.617-13.72V102.337a19.53 19.53 0 00-5.617-13.72l-72.132-73.192c-3.575-3.624-8.49-5.695-13.533-5.695H1.277A1.29 1.29 0 000 11.025v54.36a1.29 1.29 0 001.277 1.294h204.459c1.149 0 1.66 1.36.894 2.2l-19.533 19.803c-3.575 3.624-5.618 8.607-5.618 13.72v239.573c0 5.113 2.043 10.096 5.618 13.72l19.533 19.867c.766.777.255 2.201-.894 2.201H1.276c-.7-.065-1.276.517-1.276 1.229v54.361c0 .647.575 1.229 1.277 1.229h144.966c5.107 0 9.958-2.071 13.533-5.695l48.833-49.507c.51-.517 1.276-.517 1.787 0l48.833 49.507c3.574 3.624 8.49 5.695 13.533 5.695h144.711c.702 0 1.276-.582 1.276-1.294v-54.361a1.29 1.29 0 00-1.276-1.294H213.269c-1.149 0-1.66-1.359-.894-2.2v.129zM770.973 9.73H590.961c-5.106 0-9.958 2.071-13.532 5.695l-99.773 101.149c-3.574 3.624-5.617 8.607-5.617 13.72v183.531a19.533 19.533 0 005.617 13.719l99.9 101.278c3.575 3.624 8.49 5.695 13.533 5.695h179.884c5.106 0 9.958-2.071 13.532-5.695l99.9-101.278c3.575-3.624 5.617-8.607 5.617-13.719V130.423a19.528 19.528 0 00-5.617-13.719l-99.9-101.279c-3.574-3.624-8.49-5.695-13.532-5.695zm62.94 58.179v308.559a1.29 1.29 0 01-1.277 1.295H529.362a1.29 1.29 0 01-1.277-1.295V67.908a1.29 1.29 0 011.277-1.293h303.274a1.29 1.29 0 011.277 1.294zM1720.95 9.73h-180.01c-5.11 0-9.96 2.071-13.53 5.695l-99.78 101.149c-3.57 3.624-5.61 8.607-5.61 13.72v183.531c0 5.177 2.04 10.095 5.61 13.719l99.9 101.278c3.58 3.624 8.49 5.695 13.54 5.695h179.88c5.11 0 9.96-2.071 13.53-5.695l50.49-51.189 49.41-50.089c3.58-3.624 5.62-8.607 5.62-13.719V130.423a19.51 19.51 0 00-5.62-13.719l-99.9-101.279c-3.57-3.624-8.49-5.695-13.53-5.695zm62.94 58.179v308.559c0 .712-.58 1.295-1.28 1.295h-303.27c-.7 0-1.28-.583-1.28-1.295V67.908c0-.71.58-1.293 1.28-1.293h303.27c.7 0 1.28.582 1.28 1.294zM1246.87 9.73h-180.01c-5.11 0-9.96 2.071-13.53 5.695L953.492 116.64c-3.574 3.624-5.617 8.607-5.617 13.72v27.503a19.535 19.535 0 005.617 13.72l48.838 49.506c.51.518.51 1.295 0 1.813l-48.838 49.506c-3.574 3.624-5.617 8.607-5.617 13.72v27.762a19.535 19.535 0 005.617 13.72l99.968 101.278c3.57 3.624 8.49 5.695 13.53 5.695h179.88c5.11 0 9.96-2.071 13.53-5.695l99.9-101.278a19.512 19.512 0 005.62-13.72v-27.762c0-5.177-1.98-10.096-5.62-13.72l-48.83-49.442a1.264 1.264 0 010-1.812l48.83-49.507c3.58-3.624 5.62-8.607 5.62-13.719v-27.504a19.51 19.51 0 00-5.62-13.719L1260.34 15.49c-3.57-3.624-8.49-5.695-13.53-5.695l.06-.065zm63.01 58.179V218.24c0 1.165-1.34 1.683-2.17.906l-19.6-19.867c-3.58-3.624-8.49-5.695-13.53-5.695h-235.3c-5.04 0-9.95 2.071-13.53 5.695l-19.59 19.802c-.77.777-2.18.259-2.18-.906V67.909c0-.712.58-1.294 1.28-1.294h303.34c.7 0 1.28.582 1.28 1.294zm-305.83 308.559V225.877c0-1.164 1.34-1.682 2.17-.906l19.6 19.868c3.57 3.624 8.49 5.695 13.53 5.695h235.29c5.04 0 9.96-2.071 13.53-5.695l19.6-19.803c.77-.776 2.17-.259 2.17.906v150.526c0 .712-.57 1.295-1.28 1.295h-303.33c-.71 0-1.28-.583-1.28-1.295z" fill="#6E6E6E"/><path transform="rotate(90 1840 0)" fill="url(#paint0_linear_1520_117)" d="M1840 0h435v1840h-435z"/><path d="M6 474.64a5.998 5.998 0 01-2.34-.46 5.681 5.681 0 01-1.9-1.32c-.533-.573-.953-1.267-1.26-2.08-.307-.813-.46-1.733-.46-2.76 0-1.013.153-1.927.46-2.74.307-.827.727-1.527 1.26-2.1a5.681 5.681 0 011.9-1.32A5.998 5.998 0 016 461.4c.827 0 1.6.153 2.32.46a5.427 5.427 0 011.9 1.32c.547.573.973 1.273 1.28 2.1.307.813.46 1.727.46 2.74 0 1.027-.153 1.947-.46 2.76-.307.813-.733 1.507-1.28 2.08a5.427 5.427 0 01-1.9 1.32c-.72.307-1.493.46-2.32.46zm0-.8c.72 0 1.387-.133 2-.4a4.79 4.79 0 001.6-1.14c.453-.48.807-1.04 1.06-1.68.253-.653.38-1.353.38-2.1v-1a5.6 5.6 0 00-.38-2.08 5.169 5.169 0 00-1.06-1.7 4.568 4.568 0 00-1.6-1.12 4.758 4.758 0 00-2-.42c-.72 0-1.393.14-2.02.42a4.825 4.825 0 00-1.6 1.12 5.35 5.35 0 00-1.04 1.7 5.6 5.6 0 00-.38 2.08v1c0 .747.127 1.447.38 2.1.253.64.6 1.2 1.04 1.68.453.48.987.86 1.6 1.14a5.1 5.1 0 002.02.4zm.06-2.4c-.893 0-1.593-.3-2.1-.9-.507-.6-.76-1.44-.76-2.52s.253-1.92.76-2.52c.52-.6 1.227-.9 2.12-.9.6 0 1.087.133 1.46.4a2.4 2.4 0 01.86 1.06l-.76.4a1.91 1.91 0 00-.6-.76c-.253-.187-.573-.28-.96-.28-.587 0-1.047.193-1.38.58-.32.373-.48.9-.48 1.58v.86c0 .693.16 1.233.48 1.62.333.373.793.56 1.38.56.427 0 .773-.1 1.04-.3.267-.2.487-.467.66-.8l.72.44a2.6 2.6 0 01-.92 1.06c-.4.28-.907.42-1.52.42zM21.812 475h-9.08v-1.22l4.94-4.68c.68-.64 1.227-1.287 1.64-1.94.413-.667.62-1.367.62-2.1v-.38c0-.867-.246-1.553-.74-2.06-.48-.52-1.2-.78-2.16-.78-.933 0-1.66.233-2.18.7-.507.453-.88 1.067-1.12 1.84l-1.06-.38a5.86 5.86 0 01.54-1.22c.227-.387.514-.727.86-1.02a4.22 4.22 0 011.28-.7c.493-.173 1.06-.26 1.7-.26.667 0 1.253.1 1.76.3.52.187.953.453 1.3.8.36.347.627.767.8 1.26.187.48.28 1.02.28 1.62a5 5 0 01-.76 2.7c-.506.8-1.186 1.593-2.04 2.38l-4.4 4.1h7.82V475zm6.572.24c-1.613 0-2.813-.6-3.6-1.8-.773-1.213-1.16-3.02-1.16-5.42s.387-4.2 1.16-5.4c.787-1.213 1.987-1.82 3.6-1.82 1.614 0 2.807.607 3.58 1.82.787 1.2 1.18 3 1.18 5.4 0 2.4-.393 4.207-1.18 5.42-.773 1.2-1.966 1.8-3.58 1.8zm0-1.04c1.2 0 2.08-.453 2.64-1.36.56-.92.84-2.213.84-3.88v-1.88c0-1.653-.28-2.94-.84-3.86-.56-.92-1.44-1.38-2.64-1.38-1.2 0-2.08.46-2.64 1.38-.56.92-.84 2.207-.84 3.86v1.88c0 1.667.28 2.96.84 3.88.56.907 1.44 1.36 2.64 1.36zm0-5.26c-.346 0-.593-.073-.74-.22a.735.735 0 01-.22-.54v-.32c0-.213.074-.393.22-.54.147-.147.394-.22.74-.22.347 0 .594.073.74.22.147.147.22.327.22.54v.32a.735.735 0 01-.22.54c-.146.147-.393.22-.74.22zM44.197 475h-9.08v-1.22l4.94-4.68c.68-.64 1.226-1.287 1.64-1.94.413-.667.62-1.367.62-2.1v-.38c0-.867-.247-1.553-.74-2.06-.48-.52-1.2-.78-2.16-.78-.934 0-1.66.233-2.18.7-.507.453-.88 1.067-1.12 1.84l-1.06-.38a5.86 5.86 0 01.54-1.22c.226-.387.513-.727.86-1.02.36-.293.786-.527 1.28-.7.493-.173 1.06-.26 1.7-.26.666 0 1.253.1 1.76.3.52.187.953.453 1.3.8a3.2 3.2 0 01.8 1.26c.186.48.28 1.02.28 1.62 0 .987-.254 1.887-.76 2.7-.507.8-1.187 1.593-2.04 2.38l-4.4 4.1h7.82V475zm8.392 0v-2.92h-7.04v-1.06l6.5-9.98h1.68v10.06h2.18v.98h-2.18V475h-1.14zm-5.96-3.9h5.96v-9.04h-.06l-5.9 9.04zm30.484 3.9l-1.32-4.26h-5.28l-1.34 4.26h-1.24l4.44-13.96h1.58l4.42 13.96h-1.26zm-3.9-12.68h-.14l-2.28 7.38h4.7l-2.28-7.38zm6.812 11.7h3.76v-12.84h-3.76v-.98h4.9v13.82h3.74v.98h-8.64v-.98zm11.192 0h3.76v-12.84h-3.76v-.98h4.9v13.82h3.74v.98h-8.64v-.98zm23.845.98h-1.2v-13.96h5c1.24 0 2.18.353 2.82 1.06.64.693.96 1.647.96 2.86 0 1.133-.293 2.04-.88 2.72-.573.68-1.427 1.053-2.56 1.12h-.3l3.78 6.2h-1.34l-3.68-6.14h-2.6V475zm3.78-7.16c.84 0 1.473-.227 1.9-.68.427-.453.64-1.027.64-1.72v-.96c0-.693-.213-1.267-.64-1.72-.427-.453-1.06-.68-1.9-.68h-3.78v5.76h3.78zm10.912-5.92c-.36 0-.62-.073-.78-.22a.826.826 0 01-.22-.58v-.26c0-.227.073-.413.22-.56.16-.16.42-.24.78-.24.36 0 .613.08.76.24.16.147.24.333.24.56v.26a.79.79 0 01-.24.58c-.147.147-.4.22-.76.22zm-4.44 12.1h3.88v-8.36h-3.88v-.98h5.02v9.34h3.62v.98h-8.64v-.98zm20.072 2.2c0 1.04-.426 1.8-1.28 2.28-.853.493-2.106.74-3.76.74-1.6 0-2.753-.227-3.46-.68-.706-.453-1.06-1.087-1.06-1.9 0-.587.16-1.053.48-1.4.32-.333.767-.587 1.34-.76v-.16c-.653-.253-.98-.72-.98-1.4 0-.507.174-.893.52-1.16.347-.28.774-.487 1.28-.62v-.08a3.196 3.196 0 01-1.44-1.2c-.333-.533-.5-1.173-.5-1.92 0-.52.087-.993.26-1.42.187-.44.44-.813.76-1.12a3.22 3.22 0 011.2-.72c.467-.173.987-.26 1.56-.26.827 0 1.534.173 2.12.52v-.42c0-.32.074-.573.22-.76.16-.2.414-.3.76-.3h2.02v1h-2.36v.94c.334.307.587.673.76 1.1.187.427.28.907.28 1.44 0 .52-.093.993-.28 1.42-.173.427-.426.8-.76 1.12a3.583 3.583 0 01-1.2.72c-.466.16-.986.24-1.56.24-.186 0-.36-.007-.52-.02a4.083 4.083 0 01-.52-.08c-.426.107-.8.267-1.12.48-.32.213-.48.5-.48.86 0 .6.56.9 1.68.9h2.46c1.254 0 2.16.24 2.72.72.574.467.86 1.1.86 1.9zm-1.08.04c0-.493-.186-.887-.56-1.18-.36-.28-1.006-.42-1.94-.42h-3.38c-.466.147-.833.36-1.1.64-.253.293-.38.673-.38 1.14 0 .547.22.993.66 1.34.454.36 1.134.54 2.04.54h1.34c1.027 0 1.834-.173 2.42-.52.6-.333.9-.847.9-1.54zm-4-5.7c.867 0 1.514-.213 1.94-.64.44-.427.66-.973.66-1.64v-.66c0-.68-.22-1.227-.66-1.64-.426-.427-1.073-.64-1.94-.64-.853 0-1.5.213-1.94.64-.426.413-.64.96-.64 1.64v.66c0 .667.22 1.213.66 1.64.44.427 1.08.64 1.92.64zm7.372-10.36h1.14v6.08h.08c.2-.48.534-.907 1-1.28.48-.373 1.154-.56 2.02-.56 1.12 0 1.987.34 2.6 1.02.627.667.94 1.627.94 2.88V475h-1.14v-6.46c0-1.067-.233-1.847-.7-2.34-.453-.493-1.12-.74-2-.74-.36 0-.706.047-1.04.14a2.928 2.928 0 00-.9.42 2.18 2.18 0 00-.62.72c-.16.28-.24.613-.24 1V475h-1.14v-14.8zm15.053 14.8c-.56 0-.974-.147-1.24-.44-.254-.307-.38-.713-.38-1.22v-7.68h-3.66v-.98h2.9c.293 0 .5-.06.62-.18s.18-.327.18-.62v-2.84h1.1v3.64h4.92v.98h-4.92v8.36h4.92v.98h-4.44zm11.372.24c-1.04 0-1.947-.173-2.72-.52-.76-.36-1.42-.86-1.98-1.5l.78-.68c.506.587 1.073 1.027 1.7 1.32.626.28 1.373.42 2.24.42.906 0 1.64-.173 2.2-.52.573-.347.86-.88.86-1.6 0-.32-.06-.58-.18-.78a1.333 1.333 0 00-.46-.52 2.245 2.245 0 00-.7-.3c-.267-.08-.56-.14-.88-.18l-1.6-.22c-.4-.053-.807-.127-1.22-.22-.4-.107-.767-.26-1.1-.46-.32-.2-.587-.467-.8-.8-.2-.333-.3-.76-.3-1.28 0-.507.1-.947.3-1.32.2-.373.48-.68.84-.92a4 4 0 011.26-.54c.493-.12 1.02-.18 1.58-.18.96 0 1.766.16 2.42.48a5.553 5.553 0 011.68 1.16l-.76.72c-.147-.16-.32-.32-.52-.48a2.777 2.777 0 00-.7-.46 4.104 4.104 0 00-.94-.32 4.98 4.98 0 00-1.24-.14c-.88 0-1.567.16-2.06.48-.48.32-.72.8-.72 1.44 0 .32.053.587.16.8.12.2.28.367.48.5.2.133.433.24.7.32.266.067.553.12.86.16l1.62.24c.4.067.8.153 1.2.26.413.093.78.24 1.1.44.333.2.6.467.8.8.2.32.3.74.3 1.26s-.107.973-.32 1.36c-.2.387-.487.713-.86.98-.36.267-.8.467-1.32.6-.52.133-1.087.2-1.7.2zm19.304-.24h-1.2v-13.96h5c1.24 0 2.18.353 2.82 1.06.64.693.96 1.647.96 2.86 0 1.133-.293 2.04-.88 2.72-.573.68-1.426 1.053-2.56 1.12h-.3l3.78 6.2h-1.34l-3.68-6.14h-2.6V475zm3.78-7.16c.84 0 1.474-.227 1.9-.68.427-.453.64-1.027.64-1.72v-.96c0-.693-.213-1.267-.64-1.72-.426-.453-1.06-.68-1.9-.68h-3.78v5.76h3.78zm10.432 7.4c-1.44 0-2.573-.467-3.4-1.4-.813-.947-1.22-2.273-1.22-3.98 0-.853.107-1.613.32-2.28.214-.68.514-1.247.9-1.7.4-.467.88-.82 1.44-1.06.56-.253 1.18-.38 1.86-.38.694 0 1.314.127 1.86.38.547.24 1.007.587 1.38 1.04.387.453.68.993.88 1.62.2.627.3 1.32.3 2.08v.5h-7.74v.5c0 1.107.3 2 .9 2.68.6.667 1.44 1 2.52 1 .76 0 1.407-.173 1.94-.52.547-.347.967-.86 1.26-1.54l.86.54a3.957 3.957 0 01-1.5 1.84c-.693.453-1.546.68-2.56.68zm-.1-9.84c-.506 0-.966.093-1.38.28-.4.173-.746.42-1.04.74-.28.32-.5.707-.66 1.16-.16.453-.24.953-.24 1.5v.12h6.52v-.16c0-1.12-.286-2.007-.86-2.66-.56-.653-1.34-.98-2.34-.98zm11.353 9.84c-1.04 0-1.947-.173-2.72-.52-.76-.36-1.42-.86-1.98-1.5l.78-.68c.506.587 1.073 1.027 1.7 1.32.626.28 1.373.42 2.24.42.906 0 1.64-.173 2.2-.52.573-.347.86-.88.86-1.6 0-.32-.06-.58-.18-.78a1.333 1.333 0 00-.46-.52 2.245 2.245 0 00-.7-.3c-.267-.08-.56-.14-.88-.18l-1.6-.22c-.4-.053-.807-.127-1.22-.22-.4-.107-.767-.26-1.1-.46-.32-.2-.587-.467-.8-.8-.2-.333-.3-.76-.3-1.28 0-.507.1-.947.3-1.32.2-.373.48-.68.84-.92a4 4 0 011.26-.54c.493-.12 1.02-.18 1.58-.18.96 0 1.766.16 2.42.48a5.553 5.553 0 011.68 1.16l-.76.72c-.147-.16-.32-.32-.52-.48a2.777 2.777 0 00-.7-.46 4.104 4.104 0 00-.94-.32 4.98 4.98 0 00-1.24-.14c-.88 0-1.567.16-2.06.48-.48.32-.72.8-.72 1.44 0 .32.053.587.16.8.12.2.28.367.48.5.2.133.433.24.7.32.266.067.553.12.86.16l1.62.24c.4.067.8.153 1.2.26.413.093.78.24 1.1.44.333.2.6.467.8.8.2.32.3.74.3 1.26s-.107.973-.32 1.36c-.2.387-.487.713-.86.98-.36.267-.8.467-1.32.6-.52.133-1.087.2-1.7.2zm11.132 0c-1.44 0-2.574-.467-3.4-1.4-.814-.947-1.22-2.273-1.22-3.98 0-.853.106-1.613.32-2.28.213-.68.513-1.247.9-1.7.4-.467.88-.82 1.44-1.06.56-.253 1.18-.38 1.86-.38.693 0 1.313.127 1.86.38.546.24 1.006.587 1.38 1.04.386.453.68.993.88 1.62.2.627.3 1.32.3 2.08v.5h-7.74v.5c0 1.107.3 2 .9 2.68.6.667 1.44 1 2.52 1 .76 0 1.406-.173 1.94-.52.546-.347.966-.86 1.26-1.54l.86.54a3.97 3.97 0 01-1.5 1.84c-.694.453-1.547.68-2.56.68zm-.1-9.84c-.507 0-.967.093-1.38.28-.4.173-.747.42-1.04.74-.28.32-.5.707-.66 1.16-.16.453-.24.953-.24 1.5v.12h6.52v-.16c0-1.12-.287-2.007-.86-2.66-.56-.653-1.34-.98-2.34-.98zm6.692 8.62h3.24v-8.36h-3.24v-.98h4.38v2.36h.08c.227-.72.613-1.293 1.16-1.72.56-.427 1.293-.64 2.2-.64h1.78v1.12h-2.12c-.933 0-1.687.28-2.26.84-.56.547-.84 1.287-.84 2.22v5.16h4.2v.98h-8.58v-.98zm14.912.98l-3.78-10.32h1.16l3.32 9.32h.08l3.3-9.32h1.14l-3.78 10.32h-1.44zm12.072.24c-1.44 0-2.573-.467-3.4-1.4-.813-.947-1.22-2.273-1.22-3.98 0-.853.107-1.613.32-2.28.214-.68.514-1.247.9-1.7.4-.467.88-.82 1.44-1.06.56-.253 1.18-.38 1.86-.38.694 0 1.314.127 1.86.38.547.24 1.007.587 1.38 1.04.387.453.68.993.88 1.62.2.627.3 1.32.3 2.08v.5h-7.74v.5c0 1.107.3 2 .9 2.68.6.667 1.44 1 2.52 1 .76 0 1.407-.173 1.94-.52.547-.347.967-.86 1.26-1.54l.86.54a3.957 3.957 0 01-1.5 1.84c-.693.453-1.546.68-2.56.68zm-.1-9.84c-.506 0-.966.093-1.38.28-.4.173-.746.42-1.04.74-.28.32-.5.707-.66 1.16-.16.453-.24.953-.24 1.5v.12h6.52v-.16c0-1.12-.286-2.007-.86-2.66-.56-.653-1.34-.98-2.34-.98zm13.852 7.96h-.06a3.571 3.571 0 01-1.24 1.36c-.52.347-1.173.52-1.96.52-1.293 0-2.3-.46-3.02-1.38-.72-.933-1.08-2.273-1.08-4.02 0-1.747.36-3.08 1.08-4 .72-.933 1.727-1.4 3.02-1.4.787 0 1.44.173 1.96.52.534.347.947.8 1.24 1.36h.06v-6.12h1.14V475h-1.14v-1.64zm-2.88.86c.387 0 .754-.053 1.1-.16.347-.107.654-.26.92-.46.267-.2.474-.447.62-.74.16-.293.24-.62.24-.98v-4.08c0-.36-.08-.687-.24-.98a2.066 2.066 0 00-.62-.74 2.974 2.974 0 00-.92-.46 3.704 3.704 0 00-1.1-.16c-1.04 0-1.846.327-2.42.98-.56.653-.84 1.547-.84 2.68v1.44c0 1.133.28 2.027.84 2.68.574.653 1.38.98 2.42.98zm11.353.92c-.427 0-.727-.087-.9-.26-.174-.173-.26-.4-.26-.68v-.28a.89.89 0 01.26-.66c.173-.187.473-.28.9-.28.426 0 .726.093.9.28.173.173.26.393.26.66v.28c0 .28-.087.507-.26.68-.174.173-.474.26-.9.26zm1328.195-.5c-.83 0-1.61-.153-2.34-.46a5.715 5.715 0 01-1.9-1.32c-.53-.573-.95-1.267-1.26-2.08-.31-.813-.46-1.733-.46-2.76 0-1.013.15-1.927.46-2.74.31-.827.73-1.527 1.26-2.1a5.715 5.715 0 011.9-1.32c.73-.307 1.51-.46 2.34-.46.83 0 1.6.153 2.32.46.73.307 1.37.747 1.9 1.32.55.573.97 1.273 1.28 2.1.31.813.46 1.727.46 2.74 0 1.027-.15 1.947-.46 2.76-.31.813-.73 1.507-1.28 2.08a5.427 5.427 0 01-1.9 1.32 5.84 5.84 0 01-2.32.46zm0-.8c.72 0 1.39-.133 2-.4a4.76 4.76 0 001.6-1.14c.45-.48.81-1.04 1.06-1.68.25-.653.38-1.353.38-2.1v-1c0-.747-.13-1.44-.38-2.08a5.169 5.169 0 00-1.06-1.7c-.44-.48-.97-.853-1.6-1.12-.61-.28-1.28-.42-2-.42s-1.39.14-2.02.42c-.61.267-1.15.64-1.6 1.12-.44.48-.79 1.047-1.04 1.7-.25.64-.38 1.333-.38 2.08v1c0 .747.13 1.447.38 2.1.25.64.6 1.2 1.04 1.68.45.48.99.86 1.6 1.14.63.267 1.3.4 2.02.4zm.06-2.4c-.89 0-1.59-.3-2.1-.9-.51-.6-.76-1.44-.76-2.52s.25-1.92.76-2.52c.52-.6 1.23-.9 2.12-.9.6 0 1.09.133 1.46.4.39.267.67.62.86 1.06l-.76.4a1.97 1.97 0 00-.6-.76c-.25-.187-.57-.28-.96-.28-.59 0-1.05.193-1.38.58-.32.373-.48.9-.48 1.58v.86c0 .693.16 1.233.48 1.62.33.373.79.56 1.38.56.43 0 .77-.1 1.04-.3.27-.2.49-.467.66-.8l.72.44c-.2.427-.51.78-.92 1.06-.4.28-.91.42-1.52.42zm6.93 3.56v-1.04h4.16v-12.04h-.1l-3.84 3.42-.68-.76 3.98-3.54h1.82v12.92h3.9V475h-9.24zm15.39.24c-1.61 0-2.81-.6-3.6-1.8-.77-1.213-1.16-3.02-1.16-5.42s.39-4.2 1.16-5.4c.79-1.213 1.99-1.82 3.6-1.82 1.62 0 2.81.607 3.58 1.82.79 1.2 1.18 3 1.18 5.4 0 2.4-.39 4.207-1.18 5.42-.77 1.2-1.96 1.8-3.58 1.8zm0-1.04c1.2 0 2.08-.453 2.64-1.36.56-.92.84-2.213.84-3.88v-1.88c0-1.653-.28-2.94-.84-3.86-.56-.92-1.44-1.38-2.64-1.38-1.2 0-2.08.46-2.64 1.38-.56.92-.84 2.207-.84 3.86v1.88c0 1.667.28 2.96.84 3.88.56.907 1.44 1.36 2.64 1.36zm0-5.26c-.34 0-.59-.073-.74-.22a.762.762 0 01-.22-.54v-.32c0-.213.08-.393.22-.54.15-.147.4-.22.74-.22.35 0 .6.073.74.22.15.147.22.327.22.54v.32c0 .213-.07.393-.22.54-.14.147-.39.22-.74.22zm11.2 6.3c-.76 0-1.44-.1-2.04-.3-.59-.2-1.09-.473-1.5-.82-.4-.347-.71-.76-.92-1.24-.2-.493-.3-1.027-.3-1.6 0-.973.26-1.753.78-2.34.53-.6 1.24-1 2.14-1.2v-.14c-.76-.213-1.37-.607-1.82-1.18-.44-.573-.66-1.28-.66-2.12 0-1.067.38-1.913 1.14-2.54.76-.64 1.82-.96 3.18-.96s2.42.32 3.18.96c.76.627 1.14 1.473 1.14 2.54 0 .84-.23 1.547-.68 2.12-.44.573-1.04.967-1.8 1.18v.14c.89.2 1.6.6 2.12 1.2.53.587.8 1.367.8 2.34 0 .573-.11 1.107-.32 1.6-.2.48-.51.893-.92 1.24-.4.347-.9.62-1.5.82-.59.2-1.26.3-2.02.3zm0-1.02c1.08 0 1.93-.253 2.56-.76.64-.507.96-1.187.96-2.04v-.46c0-.867-.32-1.547-.94-2.04-.63-.507-1.49-.76-2.58-.76-1.1 0-1.96.253-2.58.76-.63.493-.94 1.173-.94 2.04v.46c0 .853.31 1.533.94 2.04.64.507 1.5.76 2.58.76zm0-7.04c.97 0 1.73-.22 2.28-.66.54-.453.82-1.067.82-1.84v-.36c0-.773-.28-1.38-.84-1.82-.55-.453-1.3-.68-2.26-.68-.96 0-1.72.227-2.28.68-.55.44-.82 1.047-.82 1.82v.36c0 .773.27 1.387.82 1.84.54.44 1.3.66 2.28.66zm11.19 8.06c-1.61 0-2.81-.6-3.6-1.8-.77-1.213-1.16-3.02-1.16-5.42s.39-4.2 1.16-5.4c.79-1.213 1.99-1.82 3.6-1.82s2.81.607 3.58 1.82c.79 1.2 1.18 3 1.18 5.4 0 2.4-.39 4.207-1.18 5.42-.77 1.2-1.97 1.8-3.58 1.8zm0-1.04c1.2 0 2.08-.453 2.64-1.36.56-.92.84-2.213.84-3.88v-1.88c0-1.653-.28-2.94-.84-3.86-.56-.92-1.44-1.38-2.64-1.38-1.2 0-2.08.46-2.64 1.38-.56.92-.84 2.207-.84 3.86v1.88c0 1.667.28 2.96.84 3.88.56.907 1.44 1.36 2.64 1.36zm0-5.26c-.35 0-.59-.073-.74-.22a.723.723 0 01-.22-.54v-.32c0-.213.07-.393.22-.54.15-.147.39-.22.74-.22s.59.073.74.22c.15.147.22.327.22.54v.32c0 .213-.07.393-.22.54-.15.147-.39.22-.74.22zm18.38-7.9h3.8c1.7 0 2.94.593 3.74 1.78.82 1.173 1.22 2.907 1.22 5.2 0 2.307-.4 4.047-1.22 5.22-.8 1.173-2.04 1.76-3.74 1.76h-3.8v-13.96zm3.76 12.92c1.27 0 2.2-.44 2.8-1.32.62-.893.92-2.133.92-3.72v-1.8c0-1.587-.3-2.82-.92-3.7-.6-.893-1.53-1.34-2.8-1.34h-2.56v11.88h2.56zm12.08-12.04c-.36 0-.62-.073-.78-.22a.813.813 0 01-.22-.58v-.26c0-.227.07-.413.22-.56.16-.16.42-.24.78-.24.36 0 .61.08.76.24.16.147.24.333.24.56v.26a.79.79 0 01-.24.58c-.15.147-.4.22-.76.22zm-4.44 12.1h3.88v-8.36h-3.88v-.98h5.02v9.34h3.62v.98h-8.64v-.98zm20.07 2.2c0 1.04-.43 1.8-1.28 2.28-.86.493-2.11.74-3.76.74-1.6 0-2.76-.227-3.46-.68-.71-.453-1.06-1.087-1.06-1.9 0-.587.16-1.053.48-1.4.32-.333.76-.587 1.34-.76v-.16c-.66-.253-.98-.72-.98-1.4 0-.507.17-.893.52-1.16.34-.28.77-.487 1.28-.62v-.08c-.62-.267-1.1-.667-1.44-1.2-.34-.533-.5-1.173-.5-1.92 0-.52.08-.993.26-1.42.18-.44.44-.813.76-1.12.33-.32.73-.56 1.2-.72.46-.173.98-.26 1.56-.26.82 0 1.53.173 2.12.52v-.42c0-.32.07-.573.22-.76.16-.2.41-.3.76-.3h2.02v1h-2.36v.94c.33.307.58.673.76 1.1.18.427.28.907.28 1.44 0 .52-.1.993-.28 1.42-.18.427-.43.8-.76 1.12-.34.307-.74.547-1.2.72-.47.16-.99.24-1.56.24-.19 0-.36-.007-.52-.02-.16-.013-.34-.04-.52-.08-.43.107-.8.267-1.12.48-.32.213-.48.5-.48.86 0 .6.56.9 1.68.9h2.46c1.25 0 2.16.24 2.72.72.57.467.86 1.1.86 1.9zm-1.08.04c0-.493-.19-.887-.56-1.18-.36-.28-1.01-.42-1.94-.42h-3.38c-.47.147-.84.36-1.1.64-.26.293-.38.673-.38 1.14 0 .547.22.993.66 1.34.45.36 1.13.54 2.04.54h1.34c1.02 0 1.83-.173 2.42-.52.6-.333.9-.847.9-1.54zm-4-5.7c.86 0 1.51-.213 1.94-.64.44-.427.66-.973.66-1.64v-.66c0-.68-.22-1.227-.66-1.64-.43-.427-1.08-.64-1.94-.64-.86 0-1.5.213-1.94.64-.43.413-.64.96-.64 1.64v.66c0 .667.22 1.213.66 1.64.44.427 1.08.64 1.92.64zm11.83-8.64c-.36 0-.62-.073-.78-.22a.813.813 0 01-.22-.58v-.26c0-.227.07-.413.22-.56.16-.16.42-.24.78-.24.36 0 .61.08.76.24.16.147.24.333.24.56v.26a.79.79 0 01-.24.58c-.15.147-.4.22-.76.22zm-4.44 12.1h3.88v-8.36h-3.88v-.98h5.02v9.34h3.62v.98h-8.64v-.98zm15.03.98c-.56 0-.97-.147-1.24-.44-.25-.307-.38-.713-.38-1.22v-7.68h-3.66v-.98h2.9c.3 0 .5-.06.62-.18s.18-.327.18-.62v-2.84h1.1v3.64h4.92v.98h-4.92v8.36h4.92v.98h-4.44zm14.73 0c-.46 0-.8-.113-1-.34-.2-.227-.31-.533-.34-.92v-.36h-.1c-.22.547-.6.993-1.12 1.34-.52.347-1.22.52-2.12.52-1.08 0-1.93-.26-2.56-.78-.61-.533-.92-1.28-.92-2.24 0-.453.08-.86.22-1.22.16-.373.41-.687.74-.94.35-.253.79-.447 1.32-.58.54-.147 1.19-.22 1.96-.22h2.52V468c0-.867-.24-1.513-.72-1.94-.46-.427-1.12-.64-1.96-.64-1.41 0-2.4.567-2.96 1.7l-.78-.56c.27-.6.72-1.1 1.34-1.5.64-.413 1.46-.62 2.46-.62 1.18 0 2.1.307 2.76.92.67.6 1 1.44 1 2.52V474h1.54v1h-1.28zm-4.5-.72c.44 0 .85-.053 1.22-.16.38-.107.7-.253.98-.44.28-.2.5-.44.66-.72.16-.28.24-.593.24-.94v-1.9h-2.52c-1.08 0-1.86.167-2.34.5-.46.32-.7.76-.7 1.32v.52c0 .6.22 1.053.66 1.36.46.307 1.06.46 1.8.46zm7.8-.26h3.76v-12.84h-3.76v-.98h4.9v13.82h3.74v.98h-8.64v-.98zm30.66.98l-1.32-4.26h-5.28l-1.34 4.26h-1.24l4.44-13.96h1.58l4.42 13.96h-1.26zm-3.9-12.68h-.14l-2.28 7.38h4.7l-2.28-7.38zm16.21 13.9c0 1.04-.42 1.8-1.28 2.28-.85.493-2.1.74-3.76.74-1.6 0-2.75-.227-3.46-.68-.7-.453-1.06-1.087-1.06-1.9 0-.587.16-1.053.48-1.4.32-.333.77-.587 1.34-.76v-.16c-.65-.253-.98-.72-.98-1.4 0-.507.18-.893.52-1.16.35-.28.78-.487 1.28-.62v-.08a3.228 3.228 0 01-1.44-1.2c-.33-.533-.5-1.173-.5-1.92 0-.52.09-.993.26-1.42.19-.44.44-.813.76-1.12.34-.32.74-.56 1.2-.72.47-.173.99-.26 1.56-.26.83 0 1.54.173 2.12.52v-.42c0-.32.08-.573.22-.76.16-.2.42-.3.76-.3h2.02v1h-2.36v.94c.34.307.59.673.76 1.1.19.427.28.907.28 1.44 0 .52-.09.993-.28 1.42-.17.427-.42.8-.76 1.12-.33.307-.73.547-1.2.72-.46.16-.98.24-1.56.24-.18 0-.36-.007-.52-.02-.16-.013-.33-.04-.52-.08-.42.107-.8.267-1.12.48-.32.213-.48.5-.48.86 0 .6.56.9 1.68.9h2.46c1.26 0 2.16.24 2.72.72.58.467.86 1.1.86 1.9zm-1.08.04c0-.493-.18-.887-.56-1.18-.36-.28-1-.42-1.94-.42H1780c-.46.147-.83.36-1.1.64-.25.293-.38.673-.38 1.14 0 .547.22.993.66 1.34.46.36 1.14.54 2.04.54h1.34c1.03 0 1.84-.173 2.42-.52.6-.333.9-.847.9-1.54zm-4-5.7c.87 0 1.52-.213 1.94-.64.44-.427.66-.973.66-1.64v-.66c0-.68-.22-1.227-.66-1.64-.42-.427-1.07-.64-1.94-.64-.85 0-1.5.213-1.94.64-.42.413-.64.96-.64 1.64v.66c0 .667.22 1.213.66 1.64.44.427 1.08.64 1.92.64zm11.35 4.68c-1.44 0-2.57-.467-3.4-1.4-.81-.947-1.22-2.273-1.22-3.98 0-.853.11-1.613.32-2.28.22-.68.52-1.247.9-1.7.4-.467.88-.82 1.44-1.06.56-.253 1.18-.38 1.86-.38.7 0 1.32.127 1.86.38.55.24 1.01.587 1.38 1.04.39.453.68.993.88 1.62.2.627.3 1.32.3 2.08v.5h-7.74v.5c0 1.107.3 2 .9 2.68.6.667 1.44 1 2.52 1 .76 0 1.41-.173 1.94-.52.55-.347.97-.86 1.26-1.54l.86.54c-.3.76-.8 1.373-1.5 1.84-.69.453-1.54.68-2.56.68zm-.1-9.84c-.5 0-.96.093-1.38.28-.4.173-.74.42-1.04.74-.28.32-.5.707-.66 1.16-.16.453-.24.953-.24 1.5v.12h6.52v-.16c0-1.12-.28-2.007-.86-2.66-.56-.653-1.34-.98-2.34-.98zm7.32 9.6v-10.32h1.14v1.6h.08c.2-.48.53-.907 1-1.28.48-.373 1.15-.56 2.02-.56 1.12 0 1.98.34 2.6 1.02.62.667.94 1.627.94 2.88V475h-1.14v-6.46c0-1.067-.24-1.847-.7-2.34-.46-.493-1.12-.74-2-.74-.36 0-.71.047-1.04.14-.34.093-.64.233-.9.42-.26.187-.46.427-.62.72-.16.28-.24.613-.24 1V475h-1.14zm15.41.24c-1.44 0-2.55-.473-3.34-1.42s-1.18-2.273-1.18-3.98c0-1.707.39-3.033 1.18-3.98.8-.947 1.91-1.42 3.32-1.42.96 0 1.75.22 2.36.66.61.427 1.05.98 1.32 1.66l-.92.46c-.21-.573-.55-1.013-1.02-1.32-.47-.307-1.05-.46-1.74-.46-1.05 0-1.87.34-2.44 1.02-.56.667-.84 1.553-.84 2.66v1.44c0 1.107.28 2 .84 2.68.57.667 1.39 1 2.46 1 .73 0 1.35-.167 1.84-.5.49-.333.87-.8 1.14-1.4l.84.54c-.29.68-.75 1.247-1.38 1.7-.63.44-1.44.66-2.44.66zm14.35-10.56h1.14l-5.38 13.12c-.17.413-.39.713-.66.9-.25.2-.65.3-1.2.3h-1.72v-.98h2.34l1.36-3.3-4.14-10.04h1.18l3.5 8.66h.08l3.5-8.66zm7.63 10.46c-.42 0-.72-.087-.9-.26a.932.932 0 01-.26-.68v-.28c0-.267.09-.487.26-.66.18-.187.48-.28.9-.28.43 0 .73.093.9.28.18.173.26.393.26.66v.28c0 .28-.08.507-.26.68-.17.173-.47.26-.9.26z" fill="#6E6E6E"/><defs><linearGradient id="paint0_linear_1520_117" x1="1840" y1="920" x2="2275" y2="920" gradientUnits="userSpaceOnUse"><stop stop-color="#020202"/><stop offset="1" stop-color="#020202" stop-opacity="0"/></linearGradient></defs></svg>