<svg width="1840" height="435" fill="none" xmlns="http://www.w3.org/2000/svg"><path d="M212.375 375.562l19.533-19.867c3.575-3.624 5.617-8.607 5.617-13.72V102.337a19.53 19.53 0 00-5.617-13.72l-72.132-73.192c-3.575-3.624-8.49-5.695-13.533-5.695H1.277A1.29 1.29 0 000 11.025v54.36a1.29 1.29 0 001.277 1.294h204.459c1.149 0 1.66 1.36.894 2.2l-19.533 19.803c-3.575 3.624-5.618 8.607-5.618 13.72v239.573c0 5.113 2.043 10.096 5.618 13.72l19.533 19.867c.766.777.255 2.201-.894 2.201H1.276c-.7-.065-1.276.517-1.276 1.229v54.361c0 .647.575 1.229 1.277 1.229h144.966c5.107 0 9.958-2.071 13.533-5.695l48.833-49.507c.51-.517 1.276-.517 1.787 0l48.833 49.507c3.574 3.624 8.49 5.695 13.533 5.695h144.711c.702 0 1.276-.582 1.276-1.294v-54.361a1.29 1.29 0 00-1.276-1.294H213.269c-1.149 0-1.66-1.359-.894-2.2v.129zM770.973 9.73H590.961c-5.106 0-9.958 2.071-13.532 5.695l-99.773 101.149c-3.574 3.624-5.617 8.607-5.617 13.72v183.531a19.533 19.533 0 005.617 13.719l99.9 101.278c3.575 3.624 8.49 5.695 13.533 5.695h179.884c5.106 0 9.958-2.071 13.532-5.695l99.9-101.278c3.575-3.624 5.617-8.607 5.617-13.719V130.423a19.528 19.528 0 00-5.617-13.719l-99.9-101.279c-3.574-3.624-8.49-5.695-13.532-5.695zm62.94 58.179v308.559a1.29 1.29 0 01-1.277 1.295H529.362a1.29 1.29 0 01-1.277-1.295V67.908a1.29 1.29 0 011.277-1.293h303.274a1.29 1.29 0 011.277 1.294zM1720.95 9.73h-180.01c-5.11 0-9.96 2.071-13.53 5.695l-99.78 101.149c-3.57 3.624-5.61 8.607-5.61 13.72v183.531c0 5.177 2.04 10.095 5.61 13.719l99.9 101.278c3.58 3.624 8.49 5.695 13.54 5.695h179.88c5.11 0 9.96-2.071 13.53-5.695l50.49-51.189 49.41-50.089c3.58-3.624 5.62-8.607 5.62-13.719V130.423a19.51 19.51 0 00-5.62-13.719l-99.9-101.279c-3.57-3.624-8.49-5.695-13.53-5.695zm62.94 58.179v308.559c0 .712-.58 1.295-1.28 1.295h-303.27c-.7 0-1.28-.583-1.28-1.295V67.908c0-.71.58-1.293 1.28-1.293h303.27c.7 0 1.28.582 1.28 1.294zM1246.87 9.73h-180.01c-5.11 0-9.96 2.071-13.53 5.695L953.492 116.64c-3.574 3.624-5.617 8.607-5.617 13.72v27.503a19.535 19.535 0 005.617 13.72l48.838 49.506c.51.518.51 1.295 0 1.813l-48.838 49.506c-3.574 3.624-5.617 8.607-5.617 13.72v27.762a19.535 19.535 0 005.617 13.72l99.968 101.278c3.57 3.624 8.49 5.695 13.53 5.695h179.88c5.11 0 9.96-2.071 13.53-5.695l99.9-101.278a19.512 19.512 0 005.62-13.72v-27.762c0-5.177-1.98-10.096-5.62-13.72l-48.83-49.442a1.264 1.264 0 010-1.812l48.83-49.507c3.58-3.624 5.62-8.607 5.62-13.719v-27.504a19.51 19.51 0 00-5.62-13.719L1260.34 15.49c-3.57-3.624-8.49-5.695-13.53-5.695l.06-.065zm63.01 58.179V218.24c0 1.165-1.34 1.683-2.17.906l-19.6-19.867c-3.58-3.624-8.49-5.695-13.53-5.695h-235.3c-5.04 0-9.95 2.071-13.53 5.695l-19.59 19.802c-.77.777-2.18.259-2.18-.906V67.909c0-.712.58-1.294 1.28-1.294h303.34c.7 0 1.28.582 1.28 1.294zm-305.83 308.559V225.877c0-1.164 1.34-1.682 2.17-.906l19.6 19.868c3.57 3.624 8.49 5.695 13.53 5.695h235.29c5.04 0 9.96-2.071 13.53-5.695l19.6-19.803c.77-.776 2.17-.259 2.17.906v150.526c0 .712-.57 1.295-1.28 1.295h-303.33c-.71 0-1.28-.583-1.28-1.295z" fill="#6E6E6E"/><path transform="rotate(90 1840 0)" fill="url(#paint0_linear_1591_27)" d="M1840 0h435v1840h-435z"/><defs><linearGradient id="paint0_linear_1591_27" x1="1840" y1="920" x2="2275" y2="920" gradientUnits="userSpaceOnUse"><stop stop-color="#020202"/><stop offset="1" stop-color="#020202" stop-opacity="0"/></linearGradient></defs></svg>