<svg xmlns="http://www.w3.org/2000/svg" xmlns:xlink="http://www.w3.org/1999/xlink" xmlns:svgjs="http://svgjs.com/svgjs" width="483.8" height="483.8"><svg version="1.1" id="SvgjsSvg1000" xmlns="http://www.w3.org/2000/svg" x="0" y="0" viewBox="0 0 483.8 483.8" xml:space="preserve"><circle cx="241.9" cy="241.9" r="229.4" fill="#010101"/><path d="M391.8 92c-19.5-19.5-42.1-34.8-67.4-45.4-26.1-11.1-53.9-16.7-82.5-16.7s-56.4 5.6-82.5 16.7C134.2 57.3 111.5 72.6 92 92c-19.5 19.5-34.7 42.1-45.4 67.4-11.1 26.1-16.7 53.9-16.7 82.5s5.6 56.4 16.7 82.5c10.7 25.2 26 47.9 45.4 67.4 19.5 19.5 42.1 34.8 67.4 45.4 26.1 11.1 53.9 16.7 82.5 16.7h1.1c28.2-.1 55.6-5.7 81.5-16.7 25.2-10.7 47.9-26 67.4-45.4 19.5-19.5 34.8-42.1 45.4-67.4 11.1-26.1 16.7-53.9 16.7-82.5s-5.6-56.4-16.7-82.5c-10.7-25.3-26-47.9-45.5-67.4zM234.5 46.1v188.1c-48.4-4-86.5-44.7-86.5-94.1.1-49.3 38.2-90 86.5-94zm0 392.7c-48.7-4-87-44.9-87-94.6s38.4-90.6 87-94.6v189.2zm14.8.1V249.5c49.2 3.5 88.1 44.6 88.1 94.7s-39 91.2-88.1 94.7zm0-392.9c48.9 3.5 87.6 44.4 87.6 94.1 0 49.8-38.7 90.6-87.6 94.1V46zM102.4 381.4c-37.2-37.3-57.8-86.8-57.8-139.5s20.6-102.2 57.8-139.5c19.8-19.8 43.2-34.9 68.6-44.7-23.1 20-37.7 49.6-37.7 82.4 0 46.3 28.9 85.9 69.7 101.7-41 15.9-70.2 55.8-70.2 102.3 0 32 13.7 60.8 35.6 80.8-24.4-9.6-46.8-24.4-66-43.5zm279 0c-18.7 18.7-40.4 33.1-64.1 42.9 21.4-20 34.8-48.5 34.8-80.1 0-46.6-29.2-86.5-70.2-102.3 40.7-15.9 69.7-55.5 69.7-101.7 0-32.5-14.2-61.6-36.8-81.6 24.6 9.8 47.3 24.6 66.6 43.9 37.3 37.3 57.8 86.8 57.8 139.5s-20.6 102.1-57.8 139.4z" fill="#fff"/></svg><style>@media (prefers-color-scheme:light){:root{filter:none}}</style></svg>