<svg width="920" height="223" fill="none" xmlns="http://www.w3.org/2000/svg"><path d="M196.261 7.928a26.35 26.35 0 00-8.49-5.792A26.05 26.05 0 00177.366 0c-3.607 0-7.117.712-10.373 2.136-3.16 1.359-6.032 3.332-8.49 5.792a26.772 26.772 0 00-5.713 8.607 27.009 27.009 0 00-2.106 10.516c0 3.624.702 7.215 2.106 10.516a27.674 27.674 0 005.713 8.607 26.35 26.35 0 008.49 5.792 26.015 26.015 0 0010.373 2.135h.128c3.543 0 6.99-.712 10.277-2.135 3.16-1.36 6.032-3.333 8.49-5.792a26.77 26.77 0 005.713-8.607 27.009 27.009 0 002.106-10.516c0-3.624-.702-7.216-2.106-10.516-1.341-3.236-3.287-6.116-5.745-8.607h.032zM176.44 2.07v24.01c-6.096-.518-10.883-5.695-10.883-12.005 0-6.31 4.819-11.486 10.883-12.004zm0 50.121c-6.128-.517-10.947-5.727-10.947-12.069 0-6.342 4.851-11.551 10.947-12.07v24.14zm1.852 0v-24.17c6.192.452 11.107 5.694 11.107 12.101 0 6.407-4.915 11.649-11.107 12.102v-.033zm0-50.153c6.16.453 11.043 5.662 11.043 12.004s-4.883 11.552-11.043 12.005V2.039zM159.78 44.847c-4.692-4.756-7.277-11.066-7.277-17.796 0-6.73 2.585-13.04 7.277-17.797 2.489-2.524 5.426-4.465 8.649-5.695a14.02 14.02 0 00-4.755 10.516c0 5.922 3.638 10.97 8.777 12.976-5.171 2.038-8.841 7.118-8.841 13.072 0 4.077 1.723 7.766 4.468 10.322a24.124 24.124 0 01-8.298-5.565v-.033zm35.14 0c-2.361 2.395-5.074 4.239-8.075 5.469a14.08 14.08 0 004.373-10.225c0-5.954-3.67-11.034-8.841-13.073a13.953 13.953 0 008.777-12.975c0-4.142-1.787-7.863-4.628-10.419a25.053 25.053 0 018.394 5.598c4.692 4.756 7.277 11.066 7.277 17.796 0 6.73-2.585 13.04-7.277 17.797v.032zm-88.733 148.225l9.767-9.934a9.823 9.823 0 002.809-6.859V56.459a9.767 9.767 0 00-2.809-6.86L79.888 13.005a9.556 9.556 0 00-6.767-2.848H.638a.645.645 0 00-.638.647v27.18c0 .357.287.648.638.648h102.23c.575 0 .83.68.447 1.1l-9.767 9.901a9.823 9.823 0 00-2.808 6.86V176.28a9.822 9.822 0 002.808 6.859l9.767 9.934c.383.388.128 1.1-.447 1.1H.638c-.35-.032-.638.259-.638.615v27.18c0 .324.287.615.638.615h72.483a9.5 9.5 0 006.767-2.847l24.416-24.754a.611.611 0 01.894 0l24.416 24.754a9.557 9.557 0 006.767 2.847h72.355a.645.645 0 00.639-.647v-27.18a.645.645 0 00-.639-.647H106.634c-.574 0-.83-.68-.447-1.101v.065zM385.486 10.156h-90.005a9.502 9.502 0 00-6.767 2.848l-49.886 50.574a9.824 9.824 0 00-2.808 6.86v91.765a9.766 9.766 0 002.808 6.86l49.95 50.639a9.556 9.556 0 006.766 2.848h89.942a9.502 9.502 0 006.767-2.848l49.949-50.639a9.821 9.821 0 002.809-6.86v-91.7a9.763 9.763 0 00-2.809-6.86l-49.949-50.64a9.557 9.557 0 00-6.767-2.847zm31.47 29.09v154.279a.644.644 0 01-.638.647H264.681a.644.644 0 01-.638-.647V39.245c0-.355.287-.647.638-.647h151.637c.351 0 .638.291.638.648zm443.518-29.09h-90.005a9.5 9.5 0 00-6.766 2.848l-49.887 50.574a9.824 9.824 0 00-2.808 6.86v91.765a9.766 9.766 0 002.808 6.86l49.95 50.639a9.558 9.558 0 006.767 2.848h89.941a9.502 9.502 0 006.767-2.848l25.246-25.594 24.704-25.045a9.825 9.825 0 002.808-6.86v-91.7a9.766 9.766 0 00-2.808-6.86l-49.95-50.64a9.557 9.557 0 00-6.767-2.847zm31.47 29.09v154.279a.644.644 0 01-.638.647H739.669a.644.644 0 01-.638-.647V39.245c0-.355.287-.647.638-.647h151.637c.351 0 .638.291.638.648zm-268.508-29.09h-90.005a9.5 9.5 0 00-6.767 2.848L476.746 63.61a9.824 9.824 0 00-2.808 6.86v13.752a9.766 9.766 0 002.808 6.86l24.417 24.753a.632.632 0 010 .906l-24.417 24.754a9.822 9.822 0 00-2.808 6.859v13.882a9.766 9.766 0 002.808 6.859l49.982 50.64a9.555 9.555 0 006.766 2.847h89.942a9.499 9.499 0 006.766-2.847l49.95-50.64a9.762 9.762 0 002.809-6.859v-13.882c0-2.588-.989-5.047-2.809-6.859l-24.416-24.721a.632.632 0 010-.906l24.416-24.754a9.82 9.82 0 002.809-6.86V70.503a9.763 9.763 0 00-2.809-6.86l-49.981-50.607a9.557 9.557 0 00-6.767-2.847l.032-.033zm31.502 29.09v75.165c0 .583-.67.842-1.085.453l-9.799-9.933a9.556 9.556 0 00-6.766-2.848H519.642a9.556 9.556 0 00-6.766 2.848l-9.798 9.901c-.383.388-1.086.13-1.086-.453V39.246c0-.357.288-.648.639-.648H654.3c.351 0 .638.291.638.648zM502.024 193.524V118.23c0-.583.671-.842 1.086-.453l9.798 9.933a9.556 9.556 0 006.766 2.848H637.32a9.556 9.556 0 006.766-2.848l9.799-9.901c.383-.388 1.085-.129 1.085.453v75.263a.644.644 0 01-.638.647H502.663a.645.645 0 01-.639-.647z" fill="#fff"/></svg>