<svg width="233" height="75" fill="none" xmlns="http://www.w3.org/2000/svg"><path d="M6.56 4.356h-.216L2.6 27H.62L4.796 1.872h3.06l6.264 22.644h.216L18.08 1.872h1.98L15.884 27h-3.06L6.56 4.356zm22.126 23.076c-1.152 0-2.172-.18-3.06-.54-.864-.384-1.584-.9-2.16-1.548a7.176 7.176 0 01-1.332-2.376 10.233 10.233 0 01-.432-3.024c0-1.848.24-3.504.72-4.968.48-1.488 1.14-2.748 1.98-3.78A8.63 8.63 0 0127.39 8.82c1.176-.552 2.448-.828 3.816-.828 1.152 0 2.16.192 3.024.576.888.36 1.62.876 2.196 1.548.576.648 1.008 1.44 1.296 2.376.312.912.468 1.908.468 2.988 0 1.848-.24 3.516-.72 5.004-.48 1.464-1.14 2.712-1.98 3.744a8.536 8.536 0 01-3.024 2.376c-1.152.552-2.412.828-3.78.828zm.144-1.764c1.896 0 3.42-.6 4.572-1.8 1.176-1.2 1.932-2.856 2.268-4.968l.324-2.016c.072-.408.12-.744.144-1.008.024-.264.036-.552.036-.864 0-1.656-.432-2.94-1.296-3.852-.864-.936-2.136-1.404-3.816-1.404-1.896 0-3.432.6-4.608 1.8-1.152 1.2-1.896 2.856-2.232 4.968l-.324 2.016c-.072.408-.12.744-.144 1.008a9.584 9.584 0 00-.036.864c0 1.656.432 2.952 1.296 3.888.864.912 2.136 1.368 3.816 1.368zM63.506 27h-2.124l4.176-25.128h8.784c1.968 0 3.444.54 4.428 1.62 1.008 1.056 1.512 2.424 1.512 4.104 0 2.496-.648 4.476-1.944 5.94-1.272 1.44-3.096 2.208-5.472 2.304h-.648L77.15 27h-2.304l-4.752-11.088h-4.752L63.506 27zm9.108-12.888c1.488 0 2.676-.372 3.564-1.116.888-.744 1.44-1.764 1.656-3.06l.216-1.332.072-.576c.024-.216.036-.432.036-.648 0-1.08-.348-1.956-1.044-2.628-.672-.672-1.668-1.008-2.988-1.008h-6.768L65.63 14.112h6.984zM92.04 3.456c-.624 0-1.056-.12-1.296-.36s-.36-.504-.36-.792c0-.12.012-.252.036-.396a8.05 8.05 0 01.072-.432c.072-.408.24-.732.504-.972.288-.264.732-.396 1.332-.396.624 0 1.056.12 1.296.36s.36.504.36.792c0 .12-.012.264-.036.432-.024.144-.048.276-.072.396a1.735 1.735 0 01-.54 1.008c-.264.24-.696.36-1.296.36zm-3.348 23.976c-.624 0-1.104-.168-1.44-.504-.336-.336-.504-.768-.504-1.296 0-.168.012-.348.036-.54.048-.216.096-.492.144-.828l2.736-14.112H82.68l.288-1.728h9.036L88.728 25.38l.54.216 8.1-6.228 1.08 1.296-5.328 4.104c-.624.48-1.152.888-1.584 1.224-.408.336-.78.612-1.116.828a4.66 4.66 0 01-.9.468c-.264.096-.54.144-.828.144zm20.938 0c-3.648 0-6.3-1.188-7.956-3.564l1.512-1.188c.744 1.032 1.644 1.8 2.7 2.304 1.056.48 2.352.72 3.888.72 1.824 0 3.264-.36 4.32-1.08 1.08-.72 1.62-1.764 1.62-3.132 0-1.008-.312-1.716-.936-2.124-.624-.408-1.452-.672-2.484-.792l-2.736-.324a17.622 17.622 0 01-2.016-.396 6.34 6.34 0 01-1.728-.792 4.1 4.1 0 01-1.152-1.332c-.288-.552-.432-1.236-.432-2.052 0-.96.192-1.8.576-2.52.408-.72.96-1.308 1.656-1.764.696-.48 1.5-.828 2.412-1.044.912-.24 1.896-.36 2.952-.36 1.752 0 3.192.276 4.32.828 1.128.528 2.016 1.212 2.664 2.052l-1.44 1.26a4.869 4.869 0 00-.756-.864 4.394 4.394 0 00-1.188-.756 6.723 6.723 0 00-1.62-.576c-.624-.144-1.356-.216-2.196-.216-1.728 0-3.06.336-3.996 1.008-.936.648-1.404 1.584-1.404 2.808 0 .504.084.936.252 1.296.168.336.408.612.72.828a3.67 3.67 0 001.116.504c.432.12.9.216 1.404.288l2.7.36a12.74 12.74 0 011.908.36c.648.168 1.212.42 1.692.756.504.312.912.744 1.224 1.296.312.552.468 1.248.468 2.088 0 .984-.204 1.86-.612 2.628a5.454 5.454 0 01-1.656 1.908c-.72.528-1.572.924-2.556 1.188-.984.264-2.064.396-3.24.396zM126.716.36h2.016l-2.052 12.348h.144c.744-1.512 1.656-2.676 2.736-3.492 1.104-.816 2.412-1.224 3.924-1.224 1.584 0 2.796.408 3.636 1.224.84.816 1.26 1.884 1.26 3.204 0 .576-.108 1.176-.324 1.8-.216.624-.624 1.248-1.224 1.872-.576.6-1.392 1.176-2.448 1.728-1.056.528-2.412.984-4.068 1.368l3.276 6.408.36.036 5.4-4.932 1.116 1.152-3.528 3.42c-.792.768-1.428 1.32-1.908 1.656-.48.336-.972.504-1.476.504-.456 0-.84-.132-1.152-.396-.312-.264-.612-.708-.9-1.332l-3.528-6.948c1.608-.384 2.94-.804 3.996-1.26 1.08-.456 1.944-.936 2.592-1.44.648-.528 1.104-1.068 1.368-1.62a3.958 3.958 0 00.396-1.728c0-.912-.288-1.632-.864-2.16-.552-.552-1.428-.828-2.628-.828-.912 0-1.728.18-2.448.54a6.188 6.188 0 00-1.872 1.404c-1.344 1.368-2.16 2.928-2.448 4.68L124.304 27h-2.016L126.716.36zm22.558 26.892c-.672 0-1.152-.12-1.44-.36-.264-.24-.396-.552-.396-.936 0-.24.036-.54.108-.9.096-.504.324-.9.684-1.188.36-.312.9-.468 1.62-.468.672 0 1.14.12 1.404.36.288.24.432.552.432.936 0 .24-.036.54-.108.9-.096.504-.324.912-.684 1.224-.36.288-.9.432-1.62.432zM66.998 44.356h-.216L63.038 67h-1.98l4.176-25.128h3.06l6.264 22.644h.216l3.744-22.644h1.98L76.322 67h-3.06l-6.264-22.644zm22.126 23.076c-1.152 0-2.172-.18-3.06-.54-.864-.384-1.584-.9-2.16-1.548a7.176 7.176 0 01-1.332-2.376 10.233 10.233 0 01-.432-3.024c0-1.848.24-3.504.72-4.968.48-1.488 1.14-2.748 1.98-3.78a8.63 8.63 0 012.988-2.376c1.176-.552 2.448-.828 3.816-.828 1.152 0 2.16.192 3.024.576.888.36 1.62.876 2.196 1.548.576.648 1.008 1.44 1.296 2.376.312.912.468 1.908.468 2.988 0 1.848-.24 3.516-.72 5.004-.48 1.464-1.14 2.712-1.98 3.744a8.536 8.536 0 01-3.024 2.376c-1.152.552-2.412.828-3.78.828zm.144-1.764c1.896 0 3.42-.6 4.572-1.8 1.176-1.2 1.932-2.856 2.268-4.968l.324-2.016c.072-.408.12-.744.144-1.008.024-.264.036-.552.036-.864 0-1.656-.432-2.94-1.296-3.852-.864-.936-2.136-1.404-3.816-1.404-1.896 0-3.432.6-4.608 1.8-1.152 1.2-1.896 2.856-2.232 4.968l-.324 2.016c-.072.408-.12.744-.144 1.008a9.584 9.584 0 00-.036.864c0 1.656.432 2.952 1.296 3.888.864.912 2.136 1.368 3.816 1.368zm40.292 1.764c-2.232 0-4.044-.396-5.436-1.188-1.368-.792-2.424-1.824-3.168-3.096l1.584-1.26c.768 1.2 1.704 2.124 2.808 2.772 1.104.624 2.544.936 4.32.936 2.112 0 3.78-.516 5.004-1.548 1.224-1.032 1.836-2.46 1.836-4.284 0-1.2-.324-2.148-.972-2.844-.648-.696-1.752-1.212-3.312-1.548l-2.844-.684c-1.92-.432-3.324-1.14-4.212-2.124-.864-1.008-1.296-2.304-1.296-3.888 0-1.152.204-2.172.612-3.06a6.815 6.815 0 011.764-2.268c.768-.624 1.68-1.092 2.736-1.404 1.08-.336 2.256-.504 3.528-.504 2.208 0 3.948.372 5.22 1.116 1.272.72 2.232 1.644 2.88 2.772l-1.584 1.152c-.696-1.104-1.56-1.908-2.592-2.412-1.032-.528-2.376-.792-4.032-.792-1.968 0-3.528.456-4.68 1.368-1.128.912-1.692 2.22-1.692 3.924 0 1.248.348 2.208 1.044 2.88.72.648 1.8 1.14 3.24 1.476l2.808.648c1.992.48 3.408 1.224 4.248 2.232.864.984 1.296 2.244 1.296 3.78 0 1.2-.216 2.28-.648 3.24a7.208 7.208 0 01-1.836 2.484c-.792.672-1.752 1.2-2.88 1.584-1.104.36-2.352.54-3.744.54zm18.706 0c-1.248 0-1.872-.624-1.872-1.872 0-.336.036-.792.108-1.368l2.412-14.04h-6.084l.288-1.728h4.716c.504 0 .888-.108 1.152-.324.264-.216.444-.588.54-1.116l.864-5.112h1.908l-1.08 6.552h8.388l-.288 1.728h-8.388l-2.556 15.156.504.288 8.892-5.652 1.008 1.296-6.084 3.996c-1.152.792-2.052 1.356-2.7 1.692-.624.336-1.2.504-1.728.504zm21.441 0c-1.152 0-2.172-.18-3.06-.54-.864-.384-1.584-.9-2.16-1.548a7.176 7.176 0 01-1.332-2.376 10.233 10.233 0 01-.432-3.024c0-1.848.24-3.504.72-4.968.48-1.488 1.14-2.748 1.98-3.78a8.63 8.63 0 012.988-2.376c1.176-.552 2.448-.828 3.816-.828 1.152 0 2.16.192 3.024.576.888.36 1.62.876 2.196 1.548.576.648 1.008 1.44 1.296 2.376.312.912.468 1.908.468 2.988 0 1.848-.24 3.516-.72 5.004-.48 1.464-1.14 2.712-1.98 3.744a8.536 8.536 0 01-3.024 2.376c-1.152.552-2.412.828-3.78.828zm.144-1.764c1.896 0 3.42-.6 4.572-1.8 1.176-1.2 1.932-2.856 2.268-4.968l.324-2.016c.072-.408.12-.744.144-1.008.024-.264.036-.552.036-.864 0-1.656-.432-2.94-1.296-3.852-.864-.936-2.136-1.404-3.816-1.404-1.896 0-3.432.6-4.608 1.8-1.152 1.2-1.896 2.856-2.232 4.968l-.324 2.016c-.072.408-.12.744-.144 1.008a9.584 9.584 0 00-.036.864c0 1.656.432 2.952 1.296 3.888.864.912 2.136 1.368 3.816 1.368zM187.225 67l2.844-16.848h-5.688l.288-1.728h7.668l-.72 4.248h.18a9.999 9.999 0 011.044-1.728 6.52 6.52 0 011.368-1.332 5.752 5.752 0 011.764-.864c.672-.216 1.44-.324 2.304-.324h3.384l-.324 1.98h-3.6c-1.824 0-3.276.528-4.356 1.584-.408.336-.852.852-1.332 1.548-.48.672-.804 1.512-.972 2.52L189.241 67h-2.016zm20.542 7.632c-1.44 0-2.676-.216-3.708-.648-1.008-.432-1.836-1.044-2.484-1.836l1.44-1.368c.48.648 1.116 1.152 1.908 1.512.792.36 1.788.54 2.988.54 1.8 0 3.252-.468 4.356-1.404 1.128-.912 1.86-2.436 2.196-4.572l.756-4.464h-.108c-.696 1.44-1.548 2.592-2.556 3.456-1.008.84-2.28 1.26-3.816 1.26-1.584 0-2.82-.456-3.708-1.368-.864-.936-1.296-2.232-1.296-3.888 0-.336.012-.672.036-1.008.048-.36.096-.756.144-1.188l1.872-11.232h2.016l-1.836 11.052c-.072.384-.12.744-.144 1.08-.024.336-.036.672-.036 1.008 0 1.176.3 2.1.9 2.772.6.648 1.488.972 2.664.972 1.704 0 3.132-.708 4.284-2.124.144-.168.312-.384.504-.648.216-.288.432-.624.648-1.008.216-.384.408-.804.576-1.26.192-.456.336-.948.432-1.476l1.728-10.368h2.016l-3.132 18.828c-.432 2.592-1.416 4.464-2.952 5.616-1.512 1.176-3.408 1.764-5.688 1.764zm22.09-7.38c-.672 0-1.152-.12-1.44-.36-.264-.24-.396-.552-.396-.936 0-.24.036-.54.108-.9.096-.504.324-.9.684-1.188.36-.312.9-.468 1.62-.468.672 0 1.14.12 1.404.36.288.24.432.552.432.936 0 .24-.036.54-.108.9-.096.504-.324.912-.684 1.224-.36.288-.9.432-1.62.432z" fill="#8000FF"/></svg>