<svg width="920" height="223" viewBox="0 0 920 223" fill="none" xmlns="http://www.w3.org/2000/svg">
<path d="M196.261 7.92754C193.803 5.43603 190.963 3.49459 187.771 2.13558C184.484 0.711861 180.973 0 177.366 0C173.759 0 170.249 0.711861 166.993 2.13558C163.833 3.49459 160.961 5.46838 158.503 7.92754C156.046 10.4191 154.131 13.2989 152.79 16.5346C151.386 19.8674 150.684 23.4267 150.684 27.0507C150.684 30.6747 151.386 34.2664 152.79 37.5668C154.131 40.7702 156.078 43.6824 158.503 46.1739C160.961 48.6654 163.801 50.6068 166.993 51.9658C170.281 53.3895 173.791 54.1014 177.366 54.1014H177.494C181.037 54.1014 184.484 53.3895 187.771 51.9658C190.931 50.6068 193.803 48.633 196.261 46.1739C198.718 43.6824 200.633 40.8026 201.974 37.5668C203.378 34.234 204.08 30.6747 204.08 27.0507C204.08 23.4267 203.378 19.835 201.974 16.5346C200.633 13.2989 198.687 10.4191 196.229 7.92754H196.261ZM176.44 2.07087V26.08C170.344 25.5623 165.557 20.3851 165.557 14.0754C165.557 7.76575 170.376 2.58858 176.44 2.07087ZM176.44 52.1923C170.312 51.6746 165.493 46.4651 165.493 40.1231C165.493 33.781 170.344 28.5715 176.44 28.0538V52.1923ZM178.292 52.1923V28.0214C184.484 28.4744 189.399 33.7163 189.399 40.1231C189.399 46.5298 184.484 51.7717 178.292 52.2247V52.1923ZM178.292 2.03851C184.452 2.49151 189.335 7.70104 189.335 14.0431C189.335 20.3851 184.452 25.5946 178.292 26.0476V2.07087V2.03851ZM159.78 44.8472C155.088 40.0907 152.503 33.781 152.503 27.0507C152.503 20.3204 155.088 14.0107 159.78 9.25419C162.269 6.73032 165.206 4.78888 168.429 3.5593C165.525 6.11553 163.674 9.90133 163.674 14.0754C163.674 19.9968 167.312 25.0446 172.451 27.0507C167.28 29.0892 163.61 34.1693 163.61 40.1231C163.61 44.2001 165.333 47.8888 168.078 50.445C165.014 49.2155 162.174 47.3387 159.78 44.8796V44.8472ZM194.92 44.8472C192.559 47.2417 189.846 49.086 186.845 50.3156C189.526 47.7594 191.218 44.1354 191.218 40.0907C191.218 34.137 187.548 29.0569 182.377 27.0184C187.516 24.9798 191.154 19.9321 191.154 14.0431C191.154 9.90134 189.367 6.18025 186.526 3.62402C189.622 4.88595 192.495 6.76268 194.92 9.22183C199.612 13.9784 202.197 20.288 202.197 27.0184C202.197 33.7487 199.612 40.0583 194.92 44.8149V44.8472Z" fill="white"/>
<path d="M106.187 193.072L115.954 183.138C117.741 181.326 118.763 178.835 118.763 176.279V56.4596C118.763 53.871 117.741 51.4118 115.954 49.5998L79.8879 13.0037C78.1005 11.1917 75.6429 10.1562 73.1215 10.1562H0.638337C0.287252 10.1562 0 10.4475 0 10.8034V37.9835C0 38.3395 0.287252 38.6307 0.638337 38.6307H102.868C103.443 38.6307 103.698 39.3102 103.315 39.7308L93.5483 49.6322C91.761 51.4442 90.7396 53.9357 90.7396 56.4919V176.279C90.7396 178.835 91.761 181.326 93.5483 183.138L103.315 193.072C103.698 193.46 103.443 194.172 102.868 194.172H0.638337C0.287252 194.14 0 194.431 0 194.787V221.967C0 222.291 0.287252 222.582 0.638337 222.582H73.1215C75.6749 222.582 78.1005 221.547 79.8879 219.735L104.304 194.981C104.56 194.722 104.943 194.722 105.198 194.981L129.614 219.735C131.402 221.547 133.859 222.582 136.381 222.582H208.736C209.087 222.582 209.375 222.291 209.375 221.935V194.755C209.375 194.399 209.087 194.108 208.736 194.108H106.634C106.06 194.108 105.804 193.428 106.187 193.007V193.072Z" fill="white"/>
<path d="M385.486 10.1562H295.481C292.927 10.1562 290.502 11.1917 288.714 13.0037L238.828 63.5782C237.041 65.3902 236.02 67.8817 236.02 70.4379V162.203C236.02 164.792 237.041 167.251 238.828 169.063L288.778 219.702C290.565 221.514 293.023 222.55 295.544 222.55H385.486C388.04 222.55 390.465 221.514 392.253 219.702L442.202 169.063C443.99 167.251 445.011 164.759 445.011 162.203V70.5026C445.011 67.914 443.99 65.4549 442.202 63.6429L392.253 13.0037C390.465 11.1917 388.008 10.1562 385.486 10.1562ZM416.956 39.2455V193.525C416.956 193.881 416.669 194.172 416.318 194.172H264.681C264.33 194.172 264.043 193.881 264.043 193.525V39.2455C264.043 38.8895 264.33 38.5983 264.681 38.5983H416.318C416.669 38.5983 416.956 38.8895 416.956 39.2455Z" fill="white"/>
<path d="M860.474 10.1562H770.469C767.916 10.1562 765.49 11.1917 763.703 13.0037L713.816 63.5782C712.029 65.3902 711.008 67.8817 711.008 70.4379V162.203C711.008 164.792 712.029 167.251 713.816 169.063L763.766 219.702C765.554 221.514 768.011 222.55 770.533 222.55H860.474C863.028 222.55 865.453 221.514 867.241 219.702L892.487 194.108L917.191 169.063C918.978 167.251 919.999 164.759 919.999 162.203V70.5026C919.999 67.914 918.978 65.4549 917.191 63.6429L867.241 13.0037C865.453 11.1917 862.996 10.1562 860.474 10.1562ZM891.944 39.2455V193.525C891.944 193.881 891.657 194.172 891.306 194.172H739.669C739.318 194.172 739.031 193.881 739.031 193.525V39.2455C739.031 38.8895 739.318 38.5983 739.669 38.5983H891.306C891.657 38.5983 891.944 38.8895 891.944 39.2455Z" fill="white"/>
<path d="M623.436 10.1562H533.431C530.877 10.1562 528.451 11.1917 526.664 13.0037L476.746 63.6105C474.959 65.4225 473.938 67.914 473.938 70.4703V84.2221C473.938 86.8107 474.959 89.2699 476.746 91.0819L501.163 115.835C501.418 116.094 501.418 116.482 501.163 116.741L476.746 141.495C474.959 143.307 473.938 145.798 473.938 148.354V162.236C473.938 164.824 474.959 167.283 476.746 169.095L526.728 219.735C528.515 221.547 530.973 222.582 533.494 222.582H623.436C625.989 222.582 628.415 221.547 630.202 219.735L680.152 169.095C681.94 167.283 682.961 164.824 682.961 162.236V148.354C682.961 145.766 681.972 143.307 680.152 141.495L655.736 116.774C655.481 116.515 655.481 116.126 655.736 115.868L680.152 91.1142C681.94 89.3022 682.961 86.8107 682.961 84.2545V70.5026C682.961 67.914 681.94 65.4549 680.152 63.6429L630.171 13.0361C628.383 11.224 625.926 10.1886 623.404 10.1886L623.436 10.1562ZM654.938 39.2455V114.411C654.938 114.994 654.268 115.253 653.853 114.864L644.054 104.931C642.267 103.119 639.809 102.083 637.288 102.083H519.642C517.121 102.083 514.663 103.119 512.876 104.931L503.078 114.832C502.695 115.22 501.992 114.962 501.992 114.379V39.2455C501.992 38.8895 502.28 38.5983 502.631 38.5983H654.3C654.651 38.5983 654.938 38.8895 654.938 39.2455ZM502.024 193.525V118.23C502.024 117.647 502.695 117.388 503.11 117.777L512.908 127.71C514.695 129.522 517.153 130.558 519.674 130.558H637.32C639.841 130.558 642.299 129.522 644.086 127.71L653.885 117.809C654.268 117.421 654.97 117.68 654.97 118.262V193.525C654.97 193.881 654.683 194.172 654.332 194.172H502.663C502.312 194.172 502.024 193.881 502.024 193.525Z" fill="white"/>
</svg>
